<svg width="42" height="42" viewBox="0 0 42 42" fill="none" xmlns="http://www.w3.org/2000/svg">
<path fill-rule="evenodd" clip-rule="evenodd" d="M22.75 3.5H19.25C16.9641 3.5 15.0194 4.96091 14.2987 7H12.25L11.9415 7.00891C9.18561 7.16859 7 9.45406 7 12.25V33.25L7.00891 33.5585C7.16859 36.3144 9.45406 38.5 12.25 38.5H29.75L30.0585 38.4911C32.8144 38.3314 35 36.0459 35 33.25V12.25L34.9911 11.9415C34.8314 9.18561 32.5459 7 29.75 7H27.7013C26.9806 4.96091 25.0359 3.5 22.75 3.5ZM27.7013 10.5H29.75L29.9541 10.5118C30.8244 10.6129 31.5 11.3525 31.5 12.25V33.25L31.4882 33.4541C31.3871 34.3244 30.6475 35 29.75 35H12.25L12.0459 34.9882C11.1756 34.8871 10.5 34.1475 10.5 33.25V12.25L10.5118 12.0459C10.6129 11.1756 11.3525 10.5 12.25 10.5H14.2987C15.0194 12.5391 16.9641 14 19.25 14H22.75C25.0359 14 26.9806 12.5391 27.7013 10.5ZM17.5 8.75C17.5 9.7165 18.2835 10.5 19.25 10.5H22.75C23.7165 10.5 24.5 9.7165 24.5 8.75C24.5 7.7835 23.7165 7 22.75 7H19.25C18.2835 7 17.5 7.7835 17.5 8.75Z" fill="#2E2E2E"/>
</svg>
