<svg width="42" height="42" viewBox="0 0 42 42" fill="none" xmlns="http://www.w3.org/2000/svg">
<g clip-path="url(#clip0_53_73)">
<path fill-rule="evenodd" clip-rule="evenodd" d="M21.0004 0.875C16.015 0.877587 11.1931 2.6433 7.39693 5.85642C3.60072 9.06953 1.07774 13.5205 0.279111 18.4135C-0.519516 23.3065 0.45828 28.3224 3.03768 32.5643C5.61708 36.8062 9.62988 39.9976 14.3585 41.5677C15.4018 41.7613 15.7947 41.1148 15.7947 40.565C15.7947 40.0152 15.7738 38.4213 15.7669 36.6786C9.92485 37.9407 8.69038 34.2134 8.69038 34.2134C7.73758 31.793 6.36052 31.1568 6.36052 31.1568C4.45491 29.8637 6.50311 29.8879 6.50311 29.8879C8.61389 30.0365 9.72318 32.042 9.72318 32.042C11.594 35.2333 14.6367 34.3102 15.8329 33.7708C16.0207 32.4188 16.5667 31.4991 17.1683 30.977C12.5016 30.4515 7.59848 28.6604 7.59848 20.6595C7.56955 18.5845 8.34395 16.5778 9.76143 15.0547C9.54583 14.5291 8.826 12.4062 9.96658 9.5225C9.96658 9.5225 11.7296 8.96237 15.7426 11.6628C19.1846 10.7268 22.8162 10.7268 26.2582 11.6628C30.2676 8.96237 32.0272 9.5225 32.0272 9.5225C33.1712 12.3992 32.4514 14.5222 32.2358 15.0547C33.6578 16.5781 34.4338 18.5882 34.4023 20.6664C34.4023 28.6846 29.4887 30.4515 24.8151 30.9666C25.5662 31.6167 26.2373 32.8856 26.2373 34.8357C26.2373 37.6295 26.213 39.8769 26.213 40.565C26.213 41.1217 26.592 41.7717 27.6561 41.5677C32.3853 39.9974 36.3985 36.8055 38.9779 32.5628C41.5572 28.3202 42.5345 23.3035 41.735 18.4101C40.9354 13.5167 38.4112 9.06562 34.6137 5.85306C30.8163 2.6405 25.9933 0.875947 21.0073 0.875H21.0004Z" fill="white"/>
<path d="M7.95273 30.8561C7.90753 30.9598 7.74061 30.9909 7.60499 30.9183C7.46938 30.8457 7.36854 30.7109 7.41722 30.6037C7.46591 30.4965 7.62934 30.4688 7.76496 30.5415C7.90058 30.6141 8.00489 30.7524 7.95273 30.8561Z" fill="white"/>
<path d="M8.80465 31.8C8.73264 31.8361 8.65025 31.8461 8.57159 31.8285C8.49293 31.8108 8.42289 31.7665 8.37346 31.7032C8.23784 31.558 8.21 31.3574 8.31433 31.2675C8.41865 31.1776 8.60644 31.2191 8.74206 31.3643C8.87768 31.5096 8.90897 31.7101 8.80465 31.8Z" fill="white"/>
<path d="M9.63252 32.9996C9.50386 33.0895 9.28477 32.9996 9.16306 32.8198C9.1294 32.7876 9.10264 32.7489 9.08436 32.7061C9.06608 32.6634 9.05664 32.6174 9.05664 32.5709C9.05664 32.5244 9.06608 32.4784 9.08436 32.4356C9.10264 32.3929 9.1294 32.3542 9.16306 32.3219C9.29172 32.2355 9.51081 32.3219 9.63252 32.4983C9.75423 32.6746 9.75771 32.9097 9.63252 32.9996V32.9996Z" fill="white"/>
<path d="M10.7556 34.1612C10.6408 34.2891 10.4078 34.2545 10.2166 34.0817C10.0253 33.9088 9.98011 33.6737 10.0949 33.5492C10.2096 33.4247 10.4426 33.4593 10.6408 33.6287C10.839 33.7981 10.8773 34.0367 10.7556 34.1612V34.1612Z" fill="white"/>
<path d="M12.3308 34.8392C12.2786 35.0017 12.0422 35.0743 11.8057 35.0052C11.5693 34.936 11.4128 34.7424 11.458 34.5764C11.5032 34.4104 11.7431 34.3344 11.9831 34.4104C12.223 34.4865 12.376 34.6698 12.3308 34.8392Z" fill="white"/>
<path d="M14.0486 34.9567C14.0486 35.1261 13.8539 35.2713 13.6035 35.2748C13.3531 35.2782 13.1479 35.1399 13.1479 34.9705C13.1479 34.8011 13.3427 34.6559 13.593 34.6524C13.8434 34.649 14.0486 34.7838 14.0486 34.9567Z" fill="white"/>
<path d="M15.6482 34.6904C15.6795 34.8598 15.5056 35.0361 15.2552 35.0776C15.0049 35.1191 14.7858 35.0188 14.7545 34.8529C14.7232 34.6869 14.904 34.5071 15.1474 34.4622C15.3909 34.4172 15.6169 34.5209 15.6482 34.6904Z" fill="white"/>
</g>
<defs>
<clipPath id="clip0_53_73">
<rect width="42" height="42" fill="white"/>
</clipPath>
</defs>
</svg>
