<?xml version="1.0" encoding="UTF-8"?>
<!-- This file is generated by npm run build:icons -->
<svg xmlns="http://www.w3.org/2000/svg" xmlns:xlink="http://www.w3.org/1999/xlink" width="0" height="0">
<defs>
<symbol viewBox="0 0 42 42" id="chevronDown">
<path fill-rule="evenodd" clip-rule="evenodd" d="M9.26256 14.5126C9.89341 13.8817 10.8861 13.8332 11.5726 14.367L11.7374 14.5126L21 23.7738L30.2626 14.5126C30.8934 13.8817 31.8861 13.8332 32.5726 14.367L32.7374 14.5126C33.3683 15.1434 33.4168 16.1361 32.883 16.8226L32.7374 16.9874L22.2374 27.4874C21.6066 28.1183 20.6139 28.1668 19.9274 27.633L19.7626 27.4874L9.26256 16.9874C8.57915 16.304 8.57915 15.196 9.26256 14.5126Z"></path>
</symbol>
<symbol viewBox="0 0 42 42" id="copy">
<path fill-rule="evenodd" clip-rule="evenodd" d="M22.75 3.5H19.25C16.9641 3.5 15.0194 4.96091 14.2987 7H12.25L11.9415 7.00891C9.18561 7.16859 7 9.45406 7 12.25V33.25L7.00891 33.5585C7.16859 36.3144 9.45406 38.5 12.25 38.5H29.75L30.0585 38.4911C32.8144 38.3314 35 36.0459 35 33.25V12.25L34.9911 11.9415C34.8314 9.18561 32.5459 7 29.75 7H27.7013C26.9806 4.96091 25.0359 3.5 22.75 3.5ZM27.7013 10.5H29.75L29.9541 10.5118C30.8244 10.6129 31.5 11.3525 31.5 12.25V33.25L31.4882 33.4541C31.3871 34.3244 30.6475 35 29.75 35H12.25L12.0459 34.9882C11.1756 34.8871 10.5 34.1475 10.5 33.25V12.25L10.5118 12.0459C10.6129 11.1756 11.3525 10.5 12.25 10.5H14.2987C15.0194 12.5391 16.9641 14 19.25 14H22.75C25.0359 14 26.9806 12.5391 27.7013 10.5ZM17.5 8.75C17.5 9.7165 18.2835 10.5 19.25 10.5H22.75C23.7165 10.5 24.5 9.7165 24.5 8.75C24.5 7.7835 23.7165 7 22.75 7H19.25C18.2835 7 17.5 7.7835 17.5 8.75Z"></path>
</symbol>
<symbol viewBox="0 0 42 42" id="github">
<g clip-path="url(#clip0_53_73)">
<path fill-rule="evenodd" clip-rule="evenodd" d="M21.0004 0.875C16.015 0.877587 11.1931 2.6433 7.39693 5.85642C3.60072 9.06953 1.07774 13.5205 0.279111 18.4135C-0.519516 23.3065 0.45828 28.3224 3.03768 32.5643C5.61708 36.8062 9.62988 39.9976 14.3585 41.5677C15.4018 41.7613 15.7947 41.1148 15.7947 40.565C15.7947 40.0152 15.7738 38.4213 15.7669 36.6786C9.92485 37.9407 8.69038 34.2134 8.69038 34.2134C7.73758 31.793 6.36052 31.1568 6.36052 31.1568C4.45491 29.8637 6.50311 29.8879 6.50311 29.8879C8.61389 30.0365 9.72318 32.042 9.72318 32.042C11.594 35.2333 14.6367 34.3102 15.8329 33.7708C16.0207 32.4188 16.5667 31.4991 17.1683 30.977C12.5016 30.4515 7.59848 28.6604 7.59848 20.6595C7.56955 18.5845 8.34395 16.5778 9.76143 15.0547C9.54583 14.5291 8.826 12.4062 9.96658 9.5225C9.96658 9.5225 11.7296 8.96237 15.7426 11.6628C19.1846 10.7268 22.8162 10.7268 26.2582 11.6628C30.2676 8.96237 32.0272 9.5225 32.0272 9.5225C33.1712 12.3992 32.4514 14.5222 32.2358 15.0547C33.6578 16.5781 34.4338 18.5882 34.4023 20.6664C34.4023 28.6846 29.4887 30.4515 24.8151 30.9666C25.5662 31.6167 26.2373 32.8856 26.2373 34.8357C26.2373 37.6295 26.213 39.8769 26.213 40.565C26.213 41.1217 26.592 41.7717 27.6561 41.5677C32.3853 39.9974 36.3985 36.8055 38.9779 32.5628C41.5572 28.3202 42.5345 23.3035 41.735 18.4101C40.9354 13.5167 38.4112 9.06562 34.6137 5.85306C30.8163 2.6405 25.9933 0.875947 21.0073 0.875H21.0004Z"></path>
<path d="M7.95273 30.8561C7.90753 30.9598 7.74061 30.9909 7.60499 30.9183C7.46938 30.8457 7.36854 30.7109 7.41722 30.6037C7.46591 30.4965 7.62934 30.4688 7.76496 30.5415C7.90058 30.6141 8.00489 30.7524 7.95273 30.8561Z"></path>
<path d="M8.80465 31.8C8.73264 31.8361 8.65025 31.8461 8.57159 31.8285C8.49293 31.8108 8.42289 31.7665 8.37346 31.7032C8.23784 31.558 8.21 31.3574 8.31433 31.2675C8.41865 31.1776 8.60644 31.2191 8.74206 31.3643C8.87768 31.5096 8.90897 31.7101 8.80465 31.8Z"></path>
<path d="M9.63252 32.9996C9.50386 33.0895 9.28477 32.9996 9.16306 32.8198C9.1294 32.7876 9.10264 32.7489 9.08436 32.7061C9.06608 32.6634 9.05664 32.6174 9.05664 32.5709C9.05664 32.5244 9.06608 32.4784 9.08436 32.4356C9.10264 32.3929 9.1294 32.3542 9.16306 32.3219C9.29172 32.2355 9.51081 32.3219 9.63252 32.4983C9.75423 32.6746 9.75771 32.9097 9.63252 32.9996V32.9996Z"></path>
<path d="M10.7556 34.1612C10.6408 34.2891 10.4078 34.2545 10.2166 34.0817C10.0253 33.9088 9.98011 33.6737 10.0949 33.5492C10.2096 33.4247 10.4426 33.4593 10.6408 33.6287C10.839 33.7981 10.8773 34.0367 10.7556 34.1612V34.1612Z"></path>
<path d="M12.3308 34.8392C12.2786 35.0017 12.0422 35.0743 11.8057 35.0052C11.5693 34.936 11.4128 34.7424 11.458 34.5764C11.5032 34.4104 11.7431 34.3344 11.9831 34.4104C12.223 34.4865 12.376 34.6698 12.3308 34.8392Z"></path>
<path d="M14.0486 34.9567C14.0486 35.1261 13.8539 35.2713 13.6035 35.2748C13.3531 35.2782 13.1479 35.1399 13.1479 34.9705C13.1479 34.8011 13.3427 34.6559 13.593 34.6524C13.8434 34.649 14.0486 34.7838 14.0486 34.9567Z"></path>
<path d="M15.6482 34.6904C15.6795 34.8598 15.5056 35.0361 15.2552 35.0776C15.0049 35.1191 14.7858 35.0188 14.7545 34.8529C14.7232 34.6869 14.904 34.5071 15.1474 34.4622C15.3909 34.4172 15.6169 34.5209 15.6482 34.6904Z"></path>
</g>
<defs>
<clipPath id="clip0_53_73">
<rect width="42" height="42" fill="white"></rect>
</clipPath>
</defs>
</symbol>
<symbol viewBox="0 0 42 42" id="medium">
<path d="M23.0851 21.0002C23.0851 27.599 18.9749 32.9483 13.905 32.9483C8.83511 32.9483 4.72461 27.5978 4.72461 21.0002C4.72461 14.4027 8.8348 9.05176 13.905 9.05176C18.9752 9.05176 23.0851 14.4015 23.0851 21.0002Z"></path>
<path d="M33.156 21C33.156 27.2113 31.1009 32.2486 28.5658 32.2486C26.0307 32.2486 23.9756 27.2113 23.9756 21C23.9756 14.7887 26.0304 9.75146 28.5655 9.75146C31.1006 9.75146 33.1557 14.7871 33.1557 21"></path>
<path d="M37.2753 21.0003C37.2753 26.5641 36.5527 31.0772 35.6609 31.0772C34.7692 31.0772 34.0469 26.5653 34.0469 21.0003C34.0469 15.4353 34.7695 10.9233 35.6609 10.9233C36.5524 10.9233 37.2753 15.4349 37.2753 21.0003Z"></path>
</symbol>
<symbol viewBox="0 0 42 42" id="twitter">
<g clip-path="url(#clip0_53_72)">
<path d="M13.2128 38.0623C29.0579 38.0623 37.727 24.9315 37.727 13.5481C37.727 13.1789 37.7188 12.8016 37.7024 12.4324C39.3888 11.2129 40.8441 9.70226 42 7.97159C40.4294 8.67037 38.7619 9.12674 37.0543 9.3251C38.8522 8.24741 40.1984 6.55439 40.8434 4.55991C39.152 5.56229 37.3023 6.26939 35.3735 6.65089C34.074 5.27005 32.3557 4.35577 30.4844 4.04941C28.6132 3.74304 26.6931 4.06166 25.021 4.95599C23.349 5.85032 22.0181 7.27055 21.2342 8.99711C20.4503 10.7237 20.257 12.6604 20.6842 14.5078C17.2594 14.336 13.9089 13.4463 10.85 11.8965C7.79105 10.3467 5.09196 8.17133 2.9277 5.51147C1.8277 7.40799 1.4911 9.6522 1.9863 11.788C2.48151 13.9238 3.77136 15.7908 5.59371 17.0098C4.2256 16.9664 2.88746 16.598 1.68984 15.9352V16.0418C1.68862 18.0321 2.37667 19.9613 3.63704 21.5017C4.89741 23.042 6.65232 24.0983 8.60344 24.491C7.3361 24.8378 6.00597 24.8883 4.71598 24.6387C5.26655 26.3503 6.33775 27.8474 7.7801 28.9209C9.22244 29.9944 10.964 30.5909 12.7616 30.627C9.70974 33.0243 5.93981 34.3245 2.05898 34.3184C1.37075 34.3173 0.683198 34.2751 0 34.1921C3.9425 36.7214 8.52868 38.0647 13.2128 38.0623Z"></path>
</g>
<defs>
<clipPath id="clip0_53_72">
<rect width="42" height="42" fill="white"></rect>
</clipPath>
</defs>
</symbol>
<symbol viewBox="0 0 42 42" id="youtube">
<g clip-path="url(#clip0_53_71)">
<path d="M41.5816 12.6004C41.5816 12.6004 41.1715 9.70469 39.9082 8.4332C38.3086 6.75977 36.5203 6.75156 35.7 6.65312C29.8266 6.22656 21.0082 6.22656 21.0082 6.22656H20.9918C20.9918 6.22656 12.1734 6.22656 6.3 6.65312C5.47969 6.75156 3.69141 6.75977 2.0918 8.4332C0.828516 9.70469 0.426562 12.6004 0.426562 12.6004C0.426562 12.6004 0 16.0047 0 19.4008V22.5836C0 25.9797 0.418359 29.384 0.418359 29.384C0.418359 29.384 0.828515 32.2797 2.08359 33.5512C3.6832 35.2246 5.7832 35.1672 6.71836 35.3477C10.0816 35.6676 21 35.766 21 35.766C21 35.766 29.8266 35.7496 35.7 35.3313C36.5203 35.2328 38.3086 35.2246 39.9082 33.5512C41.1715 32.2797 41.5816 29.384 41.5816 29.384C41.5816 29.384 42 25.9879 42 22.5836V19.4008C42 16.0047 41.5816 12.6004 41.5816 12.6004ZM16.6605 26.4473V14.643L28.0055 20.5656L16.6605 26.4473Z"></path>
</g>
<defs>
<clipPath id="clip0_53_71">
<rect width="42" height="42" fill="white"></rect>
</clipPath>
</defs>
</symbol>
</defs>
</svg>
